<svg
   viewBox="0 0 234 66"
   version="1.1"
   width="234"
   height="66"
   xmlns="http://www.w3.org/2000/svg"
   xmlns:svg="https://github.com/RazrFalcon/usvg"
   usvg:version="0.8.0">
  <defs
     id="defs4">
    <style
       id="style2">.cls-1{fill:#e95420;}.cls-2{fill:#fff;}.cls-3{fill:#111;}</style>
  </defs>
  <path
     id="rect6"
     style="fill:#a30b00;stroke-width:0.183196"
     class="cls-1"
     d="M 0,0 H 42.855025 V 66 H 0 Z" />
  <path
     id="circle8"
     style="fill:#ffffff;stroke-width:0.183196"
     class="cls-2"
     d="m 13.844117,43.563997 a 4.4974602,4.4974602 0 0 1 -4.4974603,4.49746 4.4974602,4.4974602 0 0 1 -4.4974603,-4.49746 4.4974602,4.4974602 0 0 1 4.4974603,-4.49746 4.4974602,4.4974602 0 0 1 4.4974603,4.49746 z" />
  <path
     id="circle10"
     style="fill:#ffffff;stroke-width:0.183196"
     class="cls-2"
     d="m 32.574071,33.702559 a 4.4974602,4.4974602 0 0 1 -4.497462,4.497462 4.4974602,4.4974602 0 0 1 -4.49746,-4.497462 4.4974602,4.4974602 0 0 1 4.49746,-4.49746 4.4974602,4.4974602 0 0 1 4.497462,4.49746 z" />
  <path
     class="cls-2"
     d="m 19.490216,55.141979 a 10.956949,10.956949 0 0 1 -7.468898,-5.697395 6.4668168,6.4668168 0 0 1 -3.847115,0.472646 14.721626,14.721626 0 0 0 13.739696,9.159797 6.4375054,6.4375054 0 0 1 -1.320843,-3.751852 11.147473,11.147473 0 0 1 -1.10284,-0.183196 z"
     id="path12"
     style="stroke-width:0.183196" />
  <path
     id="circle14"
     style="fill:#ffffff;stroke-width:0.183196"
     class="cls-2"
     d="m 31.560995,55.162127 a 4.4974602,4.4974602 0 0 1 -4.49746,4.49746 4.4974602,4.4974602 0 0 1 -4.49746,-4.49746 4.4974602,4.4974602 0 0 1 4.49746,-4.49746 4.4974602,4.4974602 0 0 1 4.49746,4.49746 z" />
  <path
     class="cls-2"
     d="m 33.32151,53.511535 a 14.714298,14.714298 0 0 0 0.732783,-17.264386 6.4924642,6.4924642 0 0 1 -2.524439,2.956783 11.033892,11.033892 0 0 1 -0.366392,10.951452 6.4430012,6.4430012 0 0 1 2.158048,3.356151 z"
     id="path16"
     style="stroke-width:0.183196" />
  <path
     class="cls-2"
     d="m 9.0241395,37.243127 c 0.1193632,5.5e-4 -0.1212882,0 0,0 1.2658125,0.0011 2.5743545,0.34839 3.4607815,1.005923 1.030645,-1.546166 2.571678,-2.903509 3.583085,-3.396527 -0.009,-1.432398 0.170128,-3.132265 0.658288,-4.266029 -3.434368,0.98122 -6.676369,4.539003 -7.7021545,6.656633 z"
     id="path18"
     style="display:inline;stroke-width:0.183834" />
  <path
     class="cls-2"
     d="m 17.818093,31.823048 c 0,0 -0.15794,0.449894 -0.206068,2.218615 0,0 1.845411,-0.677152 4.228602,-0.757773 0.419118,-5.974025 5.900024,-8.708526 8.379653,-10.198586 0,0 -2.88084,3.72715 0,0 -5.790248,-0.413897 -11.227359,2.948163 -12.326142,8.362988 z"
     id="path9434"
     style="stroke-width:0.224891" />
  <path
     d="M 52.572887,59.718712 V 29.588196 h 17.260917 v 2.434788 H 55.355502 v 10.652202 h 12.869602 v 2.434791 H 55.355502 v 12.173944 h 15.56526 v 2.434791 z"
     style="font-weight:300;font-size:19.7629px;line-height:1.25;font-family:Ubuntu;-inkscape-font-specification:'Ubuntu, Light';stroke-width:0.183196"
     id="path298" />
  <path
     d="m 85.659878,60.153496 q -3.304359,0 -5.782626,-1.391309 -2.478267,-1.391309 -3.826097,-4.000011 -1.34783,-2.652182 -1.34783,-6.260886 0,-3.521749 1.173916,-6.130452 1.217396,-2.652181 3.47827,-4.130445 2.304355,-1.478265 5.434799,-1.478265 2.000005,0 3.652183,0.608698 1.652178,0.608696 2.608702,1.304351 V 26.457752 l 2.652182,-0.478262 v 33.00009 q -0.869568,0.304348 -2.086962,0.565217 -1.173916,0.260872 -2.652181,0.434784 -1.478264,0.17391 -3.304356,0.17391 z m 0.17391,-2.391312 q 1.782613,0 3.130443,-0.17391 1.34783,-0.217404 2.086962,-0.434784 V 41.240404 q -0.913046,-0.782613 -2.521745,-1.391309 -1.565221,-0.652177 -3.478271,-0.652177 -1.956526,0 -3.434792,0.695656 -1.434787,0.652174 -2.347831,1.913047 -0.913046,1.217394 -1.34783,2.956529 -0.434784,1.695659 -0.434784,3.695664 0,2.956529 1.000002,5.043491 1.000003,2.043485 2.869574,3.173922 1.869569,1.086959 4.478272,1.086957 z"
     style="font-weight:300;font-size:19.7629px;line-height:1.25;font-family:Ubuntu;-inkscape-font-specification:'Ubuntu, Light';stroke-width:0.183196"
     id="path300" />
  <path
     d="m 109.87735,60.110017 q -3.30435,0 -5.30436,-1.173916 -1.95652,-1.217396 -2.82609,-3.521749 -0.82609,-2.304354 -0.82609,-5.652189 V 37.196911 h 2.65218 v 11.956554 q 0,3.130444 0.65218,5.000015 0.65217,1.869568 2.08696,2.695657 1.43478,0.826092 3.86957,0.826092 1.73914,0 3.26088,-0.17391 1.52174,-0.217382 2.17392,-0.434784 V 37.196916 h 2.65218 v 21.652233 q -1.39131,0.434783 -3.56523,0.869567 -2.13044,0.391305 -4.8261,0.391305 z"
     style="font-weight:300;font-size:19.7629px;line-height:1.25;font-family:Ubuntu;-inkscape-font-specification:'Ubuntu, Light';stroke-width:0.183196"
     id="path302" />
  <path
     d="m 133.52961,60.153496 q -1.6087,0 -3.08696,-0.17391 -1.43479,-0.17391 -2.65218,-0.434784 -1.17392,-0.260874 -2.04349,-0.521746 V 26.457752 l 2.65219,-0.478262 v 12.695687 q 0.86956,-0.695655 2.56522,-1.304351 1.69566,-0.608698 3.73914,-0.608698 3.2174,0 5.47828,1.521742 2.26087,1.478266 3.43479,4.130447 1.17391,2.608703 1.17391,6.000016 0,3.652185 -1.34783,6.304364 -1.34783,2.608703 -3.86957,4.04349 -2.52175,1.391309 -6.0435,1.391309 z m 0.0435,-2.391312 q 2.65218,0 4.52175,-1.086959 1.91305,-1.130437 2.86957,-3.217401 1,-2.086962 1,-5.043491 0,-1.956526 -0.43478,-3.652185 -0.39131,-1.695656 -1.34783,-2.913051 -0.91305,-1.260872 -2.34783,-1.956526 -1.39131,-0.695655 -3.34784,-0.695655 -2,0 -3.65218,0.652177 -1.6087,0.652174 -2.43479,1.34783 v 16.000043 q 0.78261,0.217382 2.08696,0.391305 1.34783,0.17391 3.08697,0.173913 z"
     style="font-weight:300;font-size:19.7629px;line-height:1.25;font-family:Ubuntu;-inkscape-font-specification:'Ubuntu, Light';stroke-width:0.183196"
     id="path304" />
  <path
     d="m 159.61667,60.110017 q -3.30436,0 -5.30437,-1.173916 -1.95652,-1.217396 -2.82609,-3.521749 -0.82609,-2.304354 -0.82609,-5.652189 V 37.196911 h 2.65218 v 11.956554 q 0,3.130444 0.65218,5.000015 0.65217,1.869568 2.08696,2.695657 1.43479,0.826092 3.86957,0.826092 1.73914,0 3.26088,-0.17391 1.52175,-0.217382 2.17392,-0.434784 V 37.196916 h 2.65218 v 21.652233 q -1.3913,0.434783 -3.56522,0.869567 -2.13044,0.391305 -4.8261,0.391305 z"
     style="font-weight:300;font-size:19.7629px;line-height:1.25;font-family:Ubuntu;-inkscape-font-specification:'Ubuntu, Light';stroke-width:0.183196"
     id="path306" />
  <path
     d="M 175.48629,59.718712 V 38.066479 q 1.30435,-0.347827 3.43479,-0.78261 2.13044,-0.434784 5.0435,-0.434784 3.47827,0 5.39131,1.260873 1.91305,1.260872 2.69566,3.608704 0.78261,2.304354 0.78261,5.478277 v 12.521773 h -2.65218 V 48.066506 q 0,-3.173922 -0.60869,-5.086969 -0.56522,-1.956529 -2.00001,-2.869575 -1.39131,-0.913046 -3.95653,-0.913046 -1.95653,0 -3.47827,0.30435 -1.52174,0.26087 -2.00001,0.391305 v 19.826141 z"
     style="font-weight:300;font-size:19.7629px;line-height:1.25;font-family:Ubuntu;-inkscape-font-specification:'Ubuntu, Light';stroke-width:0.183196"
     id="path308" />
  <path
     d="m 207.2255,60.110017 q -2.69566,0 -4.30436,-0.913046 -1.6087,-0.913046 -2.30435,-2.826094 -0.69566,-1.913049 -0.69566,-4.913057 V 30.588197 l 2.69566,-0.478262 v 7.173934 h 8.91307 v 2.260876 h -8.91307 v 12.173944 q 0,2.434791 0.56522,3.739142 0.56522,1.260873 1.6087,1.782614 1.08696,0.47826 2.60871,0.47826 1.52174,0 2.65218,-0.347827 1.13043,-0.391305 1.82609,-0.739131 l 0.56522,2.217397 q -0.73913,0.391305 -2.17392,0.826089 -1.43479,0.434784 -3.04349,0.434784 z"
     style="font-weight:300;font-size:19.7629px;line-height:1.25;font-family:Ubuntu;-inkscape-font-specification:'Ubuntu, Light';stroke-width:0.183196"
     id="path310" />
  <path
     d="m 225.52992,60.110017 q -3.30436,0 -5.30435,-1.173916 -1.95654,-1.217396 -2.8261,-3.521749 -0.82609,-2.304354 -0.82609,-5.652189 V 37.196911 h 2.65218 v 11.956554 q 0,3.130444 0.65217,5.000015 0.65218,1.869568 2.08696,2.695657 1.43479,0.826092 3.86958,0.826092 1.73914,0 3.26088,-0.17391 1.52174,-0.217382 2.17391,-0.434784 V 37.196916 h 2.65219 v 21.652233 q -1.3913,0.434783 -3.56523,0.869567 -2.13044,0.391305 -4.8261,0.391305 z"
     style="font-weight:300;font-size:19.7629px;line-height:1.25;font-family:Ubuntu;-inkscape-font-specification:'Ubuntu, Light';stroke-width:0.183196"
     id="path312" />
</svg>
