<?xml version="1.0" encoding="UTF-8" standalone="no"?>
<svg
   id="Layer_1"
   data-name="Layer 1"
   viewBox="0 0 106.32784 30.000001"
   version="1.1"
   width="106.32784"
   height="30"
   xmlns="http://www.w3.org/2000/svg"
   xmlns:svg="http://www.w3.org/2000/svg">
  <defs
     id="defs4">
    <style
       id="style2">.cls-1{fill:#e95420;}.cls-2{fill:#fff;}.cls-3{fill:#111;}</style>
  </defs>
  <rect
     class="cls-1"
     width="19.479557"
     height="30"
     id="rect6"
     style="fill:#a30b00;fill-opacity:1;stroke-width:0.0832709"
     x="0"
     y="0" />
  <circle
     class="cls-2"
     cx="4.2484803"
     cy="19.801817"
     r="2.0443001"
     id="circle8"
     style="stroke-width:0.0832709" />
  <circle
     class="cls-2"
     cx="12.762095"
     cy="15.319345"
     r="2.0443001"
     id="circle10"
     style="stroke-width:0.0832709" />
  <path
     class="cls-2"
     d="M 8.8591892,25.064536 A 4.9804315,4.9804315 0 0 1 5.4642353,22.474811 2.9394622,2.9394622 0 0 1 3.7155468,22.68965 6.6916481,6.6916481 0 0 0 9.960863,26.853194 2.9261388,2.9261388 0 0 1 9.3604799,25.147807 5.0670332,5.0670332 0 0 1 8.8591892,25.064536 Z"
     id="path12"
     style="stroke-width:0.0832709" />
  <circle
     class="cls-2"
     cx="12.301607"
     cy="25.073694"
     r="2.0443001"
     id="circle14"
     style="stroke-width:0.0832709" />
  <path
     class="cls-2"
     d="m 15.146141,24.323425 a 6.6883173,6.6883173 0 0 0 0.333083,-7.847448 2.9511201,2.9511201 0 0 1 -1.147472,1.343992 5.0154053,5.0154053 0 0 1 -0.166542,4.977933 2.9286369,2.9286369 0 0 1 0.980931,1.525523 z"
     id="path16"
     style="stroke-width:0.0832709" />
  <path
     class="cls-2"
     d="m 4.1018816,16.928694 c 0.054256,2.5e-4 -0.055131,0 0,0 0.5753694,5e-4 1.1701613,0.158359 1.5730824,0.457238 0.468475,-0.702803 1.1689446,-1.319777 1.6286751,-1.543876 -0.00409,-0.65109 0.077331,-1.423757 0.2992219,-1.939104 -1.5610766,0.446009 -3.0347132,2.063183 -3.5009794,3.025742 z"
     id="path18"
     style="display:inline;stroke-width:0.0835607" />
  <path
     class="cls-2"
     d="m 8.0991331,14.465022 c 0,0 -0.071791,0.204497 -0.093667,1.008461 0,0 0.8388232,-0.307796 1.9220916,-0.344442 0.1905083,-2.715466 2.6818293,-3.958421 3.8089333,-4.635721 0,0 -1.309473,1.694159 0,0 -2.631931,-0.188135 -5.1033451,1.340074 -5.6027917,3.801358 z"
     id="path9434"
     style="stroke-width:0.102223" />
  <text
     xml:space="preserve"
     style="font-style:normal;font-weight:normal;font-size:3.33084px;line-height:1.25;font-family:sans-serif;display:inline;fill:#000000;fill-opacity:1;stroke:none;stroke-width:0.0832709"
     x="22.098343"
     y="27.144869"
     id="text18569"><tspan
       id="tspan18567"
       x="22.098343"
       y="27.144869"
       style="font-style:normal;font-variant:normal;font-weight:300;font-stretch:normal;font-size:19.7629px;font-family:Ubuntu;-inkscape-font-specification:'Ubuntu, Light';font-variant-ligatures:normal;font-variant-caps:normal;font-variant-numeric:normal;font-variant-east-asian:normal;stroke-width:0.0832709">Edubuntu</tspan></text>
</svg>
